<?xml version="1.0" encoding="utf-8"?>
<!-- Generator: Adobe Illustrator 21.0.2, SVG Export Plug-In . SVG Version: 6.00 Build 0)  -->
<svg version="1.1" id="Calque_1" xmlns="http://www.w3.org/2000/svg" xmlns:xlink="http://www.w3.org/1999/xlink" x="0px" y="0px"
	 width="351px" height="327.1px" viewBox="0 0 351 327.1" style="enable-background:new 0 0 351 327.1;" xml:space="preserve">
<style type="text/css">
	.st0{fill:#444444;}
	.st1{fill:#FCFCFC;}
	.st2{fill:#444444;stroke:#444444;stroke-width:2;stroke-miterlimit:10;}
	.st3{fill:#FFFFFF;stroke:#444444;stroke-width:2;stroke-miterlimit:10;}
	.st4{fill:none;stroke:#444444;stroke-width:2;stroke-miterlimit:10;}
	.st5{display:none;}
	.st6{display:inline;}
	.st7{fill:#458DF4;}
	.st8{fill:url(#SVGID_1_);}
	.st9{fill:url(#SVGID_2_);}
	.st10{fill:url(#SVGID_3_);}
</style>
<g>
	<g>
		<polygon class="st0" points="73.3,36.1 134.7,0 222.3,118.5 199.4,171.6 150,184.6 35.2,89.6 		"/>
		<polygon class="st1" points="74.6,37.9 132.7,3 96.1,57 172.5,143.8 90.6,62.7 40,87.2 		"/>
		<path class="st2" d="M35.2,252.8c-10.1-8.9-21-14.1-27.9-14.1c-2.5,0-4.5,0.7-5.8,2.2c-2.4,2.7-1.8,7.7,1.2,13.4
			c0.4,0.7,0.8,1.5,1.2,2.2c0.7,1.1,1.4,2.3,2.2,3.4c1.4,1.9,2.9,3.9,4.7,5.8c0.3,0.4,0.7,0.8,1.1,1.2c1.8,2,3.8,3.9,6,5.8
			c0.6,0.5,1.1,1,1.7,1.4c0.1,0.1,0.3,0.2,0.4,0.4c0.5,0.4,1,0.8,1.6,1.2c0.1,0,0.1,0.1,0.2,0.1c0.6,0.4,1.1,0.9,1.7,1.3
			c0.1,0.1,0.3,0.2,0.4,0.3c0.5,0.4,1,0.7,1.5,1c0.1,0.1,0.2,0.1,0.3,0.2c0.6,0.4,1.1,0.7,1.7,1.1c0.1,0.1,0.3,0.2,0.4,0.3
			c0.5,0.3,0.9,0.6,1.4,0.9c0.1,0.1,0.2,0.1,0.3,0.2c0.5,0.3,1.1,0.6,1.6,0.9c0.1,0.1,0.2,0.1,0.4,0.2c0.5,0.2,0.9,0.5,1.3,0.7
			c0.1,0.1,0.2,0.1,0.4,0.2c0.5,0.3,1.1,0.5,1.6,0.8c0.1,0,0.2,0.1,0.3,0.1c0.4,0.2,0.9,0.4,1.3,0.6c0.1,0.1,0.3,0.1,0.4,0.2
			c0.5,0.2,1,0.4,1.5,0.6c0.1,0,0.2,0.1,0.2,0.1c0.4,0.1,0.8,0.3,1.3,0.4c0.1,0,0.2,0.1,0.4,0.1c0.5,0.1,0.9,0.3,1.4,0.4h0.1
			c0.4,0.1,0.8,0.2,1.2,0.2c0.1,0,0.2,0,0.3,0.1c0.4,0.1,0.9,0.1,1.3,0.2l0,0c0.4,0,0.8,0,1.2,0.1c0.1,0,0.2,0,0.4,0s0.3,0,0.5,0
			c0.1,0,0.3,0,0.4,0c0.2,0,0.3,0,0.5-0.1c0.1,0,0.2,0,0.4-0.1c0.1,0,0.3-0.1,0.4-0.1c0.1,0,0.2-0.1,0.3-0.1s0.3-0.1,0.4-0.1
			c0.1,0,0.2-0.1,0.3-0.1c0.1-0.1,0.3-0.1,0.4-0.2c0.1,0,0.2-0.1,0.3-0.1c0.1-0.1,0.3-0.1,0.4-0.2c0.1,0,0.2-0.1,0.2-0.1
			c0.1-0.1,0.3-0.2,0.4-0.3c0.1,0,0.1-0.1,0.2-0.1c0.2-0.2,0.3-0.3,0.5-0.5s0.4-0.5,0.5-0.7l0.1-0.1c0.1-0.2,0.3-0.5,0.4-0.8
			C55,276.7,47.8,263.9,35.2,252.8z"/>
		<path class="st3" d="M125.2,127.5c-8-7-16.6-10.1-19.4-6.9L3.7,238.3c1-0.3,2.2-0.5,3.5-0.5l0,0c7.4,0,18.6,5.6,28.6,14.4
			c11.5,10,18.4,21.3,18.1,28.5L134.6,146C137.4,142.7,133.2,134.5,125.2,127.5z"/>
	</g>
	<g>
		<path class="st4" d="M11.6,227.8c0,0,43.1-9.4,68.2,11"/>
		<path class="st4" d="M29.8,208.2c0,0,37.2-8.1,63.8,6.1"/>
		<path class="st4" d="M47.6,226.4c0,0,18.1,22.4,17,36.4"/>
		<path class="st4" d="M19.6,226.5c0,0,24.2,32.1,16.5,36.2"/>
		<path class="st4" d="M66.1,206.5c0,0-4.7-13.8-18.5-20.3"/>
		<path class="st4" d="M54.5,190.6c0,0,23.7-8.7,54.2-1.3"/>
		<path class="st4" d="M68.9,163.2c0,0,16.7,9.7,22.2,23.3"/>
		<path class="st4" d="M85.7,143.8c0,0,26.7,17.7,30.9,32.2"/>
		<path class="st4" d="M106.2,160.7c0,0,12.7,0.3,18,2.6"/>
		<path class="st4" d="M95.8,132.2c0,0,26.5-1.2,40.8,6"/>
	</g>
</g>
<g class="st5">
	<g class="st6">
		<path class="st7" d="M342.6,136.3c-0.3-0.3-0.5-0.5-0.8-0.8s-0.5-0.6-0.8-0.8c-7.9-7.6-20-9.7-34.6-7.2c2.2,0.4,4.3,1,6.2,1.8
			c2.9,1.2,5.6,2.9,7.8,5c20.4,19.7,1.3,72.6-42.6,118.2s-96.2,66.6-116.6,46.9c-1.4-1.4-2.6-2.9-3.7-4.6c-0.9-1.4-1.7-3-2.3-4.6
			c-0.5,11.7,2.4,21.3,9,27.8c0.3,0.3,0.6,0.5,0.9,0.8c0.3,0.3,0.5,0.5,0.8,0.8c21.8,21,79-3,127.8-53.6
			C342.5,215.3,364.4,157.2,342.6,136.3z"/>
	</g>
	<g class="st6">
		<path class="st7" d="M284.9,131.1c-0.2-0.2-0.4-0.4-0.6-0.5c-0.2-0.2-0.4-0.4-0.6-0.6c-5.6-5.4-14.2-6.9-24.5-5.1
			c1.6,0.3,3,0.7,4.4,1.3c2.1,0.9,3.9,2,5.5,3.6c14.5,13.9,0.9,51.4-30.2,83.7s-68.1,47.1-82.5,33.2c-1-1-1.9-2.1-2.6-3.2
			c-0.6-1-1.2-2.1-1.6-3.3c-0.4,8.3,1.7,15.1,6.4,19.7c0.2,0.2,0.4,0.4,0.6,0.6c0.2,0.2,0.4,0.4,0.6,0.6c15.4,14.9,55.9-2.1,90.5-38
			C284.8,187,300.3,145.9,284.9,131.1z"/>
	</g>
	<g class="st6">
		<path class="st7" d="M232.1,138.5c-0.1-0.1-0.2-0.2-0.3-0.3s-0.2-0.2-0.3-0.3c-3-2.8-7.5-3.6-12.9-2.7c0.8,0.1,1.6,0.4,2.3,0.7
			c1.1,0.4,2.1,1.1,2.9,1.9c7.6,7.4,0.5,27.2-15.9,44.2s-36,24.9-43.6,17.5c-0.5-0.5-1-1.1-1.4-1.7c-0.3-0.5-0.6-1.1-0.9-1.7
			c-0.2,4.4,0.9,8,3.4,10.4c0.1,0.1,0.2,0.2,0.3,0.3s0.2,0.2,0.3,0.3c8.1,7.9,29.5-1.1,47.8-20.1C232,168.1,240.2,146.4,232.1,138.5
			z"/>
	</g>
</g>
<g>
	<g>
		<linearGradient id="SVGID_1_" gradientUnits="userSpaceOnUse" x1="168.9748" y1="212.0795" x2="337.4993" y2="241.7949">
			<stop  offset="0" style="stop-color:#140121"/>
			<stop  offset="1" style="stop-color:#D93B90"/>
		</linearGradient>
		<path class="st8" d="M342.6,136.3c-0.3-0.3-0.5-0.5-0.8-0.8s-0.5-0.6-0.8-0.8c-7.9-7.6-20-9.7-34.6-7.2c2.2,0.4,4.3,1,6.2,1.8
			c2.9,1.2,5.6,2.9,7.8,5c20.4,19.7,1.3,72.6-42.6,118.2s-96.2,66.6-116.6,46.9c-1.4-1.4-2.6-2.9-3.7-4.6c-0.9-1.4-1.7-3-2.3-4.6
			c-0.5,11.7,2.4,21.3,9,27.8c0.3,0.3,0.6,0.5,0.9,0.8c0.3,0.3,0.5,0.5,0.8,0.8c21.8,21,79-3,127.8-53.6
			C342.5,215.3,364.4,157.2,342.6,136.3z"/>
	</g>
	<g>
		<linearGradient id="SVGID_2_" gradientUnits="userSpaceOnUse" x1="161.9541" y1="184.8818" x2="281.2453" y2="205.9161">
			<stop  offset="0" style="stop-color:#140121"/>
			<stop  offset="1" style="stop-color:#D93B90"/>
		</linearGradient>
		<path class="st9" d="M284.9,131.1c-0.2-0.2-0.4-0.4-0.6-0.5c-0.2-0.2-0.4-0.4-0.6-0.6c-5.6-5.4-14.2-6.9-24.5-5.1
			c1.6,0.3,3,0.7,4.4,1.3c2.1,0.9,3.9,2,5.5,3.6c14.5,13.9,0.9,51.4-30.2,83.7s-68.1,47.1-82.5,33.2c-1-1-1.9-2.1-2.6-3.2
			c-0.6-1-1.2-2.1-1.6-3.3c-0.4,8.3,1.7,15.1,6.4,19.7c0.2,0.2,0.4,0.4,0.6,0.6c0.2,0.2,0.4,0.4,0.6,0.6c15.4,14.9,55.9-2.1,90.5-38
			C284.8,187,300.3,145.9,284.9,131.1z"/>
	</g>
	<g>
		<linearGradient id="SVGID_3_" gradientUnits="userSpaceOnUse" x1="167.151" y1="166.8877" x2="230.1542" y2="177.9969">
			<stop  offset="0" style="stop-color:#140121"/>
			<stop  offset="1" style="stop-color:#D93B90"/>
		</linearGradient>
		<path class="st10" d="M232.1,138.5c-0.1-0.1-0.2-0.2-0.3-0.3s-0.2-0.2-0.3-0.3c-3-2.8-7.5-3.6-12.9-2.7c0.8,0.1,1.6,0.4,2.3,0.7
			c1.1,0.4,2.1,1.1,2.9,1.9c7.6,7.4,0.5,27.2-15.9,44.2s-36,24.9-43.6,17.5c-0.5-0.5-1-1.1-1.4-1.7c-0.3-0.5-0.6-1.1-0.9-1.7
			c-0.2,4.4,0.9,8,3.4,10.4c0.1,0.1,0.2,0.2,0.3,0.3s0.2,0.2,0.3,0.3c8.1,7.9,29.5-1.1,47.8-20.1C232,168.1,240.2,146.4,232.1,138.5
			z"/>
	</g>
</g>
</svg>
